<svg xmlns="http://www.w3.org/2000/svg" xmlns:xlink="http://www.w3.org/1999/xlink" width="130" height="130" viewBox="0 0 130 130">
  <defs>
    <clipPath id="clip-path">
      <rect id="Rectangle_63698" data-name="Rectangle 63698" width="130" height="130" transform="translate(11184 -15420)" fill="#fff" stroke="#fff" stroke-width="1"/>
    </clipPath>
  </defs>
  <g id="Mask_Group_143735" data-name="Mask Group 143735" transform="translate(-11184 15420)" clip-path="url(#clip-path)">
    <g id="Group_144929" data-name="Group 144929" transform="translate(-25.152 -14.383)">
      <g id="Group_144928" data-name="Group 144928" transform="translate(11217.485 -15380.489)">
        <g id="Group_143114" data-name="Group 143114" transform="translate(0 0)">
          <g id="Group_143113" data-name="Group 143113" transform="translate(19.421 19.23)">
            <path id="Path_127493" data-name="Path 127493" d="M108.967,100c.617.663,1.235,1.324,1.847,1.993a1.516,1.516,0,0,1,.21,1.871c-.724,1.486-1.417,2.989-2.065,4.51a1.542,1.542,0,0,1-1.635,1.1c-.866-.046-1.734-.076-2.6-.1-.662-.016-1.083.262-1.11.983-.052,1.4-.114,2.79-.165,4.185a.969.969,0,0,0,1.067,1.148c.83.02,1.659.1,2.488.106a1.6,1.6,0,0,1,1.681,1.341,39.456,39.456,0,0,0,1.61,4.333,1.681,1.681,0,0,1-.433,2.212c-.592.527-1.16,1.08-1.747,1.612a.958.958,0,0,0-.072,1.56c.931.989,1.865,1.975,2.775,2.983a.989.989,0,0,0,1.641.067c.6-.577,1.22-1.126,1.821-1.7a1.591,1.591,0,0,1,2.054-.218c1.406.713,2.85,1.358,4.309,1.958a1.6,1.6,0,0,1,1.175,1.7c-.044.829-.042,1.66-.082,2.489a1.011,1.011,0,0,0,1.128,1.209q1.98.06,3.959.162c.864.045,1.251-.363,1.259-1.206.007-.717.069-1.434.054-2.15a1.753,1.753,0,0,1,1.5-1.926,29.284,29.284,0,0,0,4.118-1.535,1.728,1.728,0,0,1,2.311.411c.721.812,1.488,1.583,2.306,2.447,1.417-1.318,2.648-2.484,3.9-3.622a.825.825,0,0,0,.061-1.354c-.566-.607-1.119-1.227-1.7-1.82a1.656,1.656,0,0,1-.27-2.15c.713-1.408,1.377-2.846,1.961-4.311a1.571,1.571,0,0,1,1.7-1.162q1.074.054,2.15.073c1.307.026,1.493-.137,1.559-1.476.059-1.206.053-2.415.113-3.62.044-.881-.378-1.235-1.213-1.242a9.971,9.971,0,0,1-2.477-.117,2.447,2.447,0,0,1-1.439-1.155c-.687-1.5-1.162-3.093-1.772-4.629a1.572,1.572,0,0,1,.39-1.941c.613-.56,1.2-1.144,1.827-1.692a.992.992,0,0,0,.08-1.64c-.933-.987-1.853-1.986-2.777-2.983a.977.977,0,0,0-1.57-.058c-.606.568-1.22,1.126-1.82,1.7a1.6,1.6,0,0,1-2.053.264c-1.444-.724-2.92-1.388-4.411-2.012a1.547,1.547,0,0,1-1.13-1.617c.036-.829.044-1.66.1-2.488.057-.867-.351-1.257-1.188-1.278-1.32-.033-2.641-.062-3.96-.117-.824-.035-1.163.359-1.176,1.15-.014.83-.085,1.658-.1,2.488a1.557,1.557,0,0,1-1.219,1.557c-1.527.527-3.052,1.066-4.545,1.68a1.619,1.619,0,0,1-2.035-.4c-.56-.613-1.141-1.206-1.7-1.824a.953.953,0,0,0-1.556-.079q-1.527,1.433-3.067,2.852A.944.944,0,0,0,108.967,100Z" transform="translate(-103.446 -91.103)" fill="none" stroke="#fff" stroke-miterlimit="10" stroke-width="2"/>
            <path id="Path_127494" data-name="Path 127494" d="M171.328,151.729a7.12,7.12,0,1,0-7.243,7.052A7.142,7.142,0,0,0,171.328,151.729Z" transform="translate(-142.01 -129.436)" fill="#e68a3e"/>
          </g>
          <g id="Group_143136" data-name="Group 143136" transform="translate(0)">
            <path id="Path_127621" data-name="Path 127621" d="M-2.32-.918,5.909,1.172" transform="translate(2.32 59.764)" fill="none" stroke="#fff" stroke-width="2"/>
            <path id="Path_127495" data-name="Path 127495" d="M17.722,88.558c16.32-.005,17.855.012,34.176,0A39.671,39.671,0,1,0,12.646,43a39.268,39.268,0,0,0,5.83,27.319c.183.291,1.715-9.3,1.715-9.3" transform="translate(-9.523 -9.224)" fill="none" stroke="#fff" stroke-miterlimit="10" stroke-width="2"/>
          </g>
        </g>
        <g id="Group_144926" data-name="Group 144926" transform="translate(83.555)">
          <path id="Path_129066" data-name="Path 129066" d="M0,0H24.361" transform="translate(6.819 2.162) rotate(90)" fill="none" stroke="#fff" stroke-width="2"/>
          <path id="Path_129068" data-name="Path 129068" d="M11271.66-15372.421c.311-.2,6.82-6.818,6.82-6.818l6.816,6.818" transform="translate(-11271.66 15379.239)" fill="none" stroke="#fff" stroke-width="2"/>
        </g>
        <g id="Group_144927" data-name="Group 144927" transform="translate(98.841 18.431)">
          <path id="Path_129066-2" data-name="Path 129066" d="M0,0H21.46" transform="translate(6.819 2.165) rotate(90)" fill="none" stroke="#fff" stroke-width="2"/>
          <path id="Path_129068-2" data-name="Path 129068" d="M11271.66-15372.421c.311-.2,6.82-6.818,6.82-6.818l6.816,6.818" transform="translate(-11271.66 15379.239)" fill="none" stroke="#fff" stroke-width="2"/>
        </g>
      </g>
    </g>
  </g>
</svg>
